<svg width="96" height="96" xmlns="http://www.w3.org/2000/svg" xmlns:xlink="http://www.w3.org/1999/xlink" xml:space="preserve" overflow="hidden"><defs><clipPath id="clip0"><rect x="500" y="230" width="96" height="96"/></clipPath></defs><g clip-path="url(#clip0)" transform="translate(-500 -230)"><path d="M580 296C579.948 293.495 578.773 291.145 576.8 289.6 572.4 286 566.8 283.6 561.2 282 556.922 280.69 552.474 280.017 548 280 543.531 280.077 539.092 280.75 534.8 282 529.207 283.632 523.932 286.202 519.2 289.6 517.227 291.145 516.052 293.495 516 296L516 312 580 312Z"/><path d="M545 255.75C547.6 254.22 554 249.28 554 249.28L554 249.28C555.01 249.367 555.971 249.754 556.76 250.39 558.68 251.738 560.307 253.464 561.54 255.46 562.65 257.12 563.6 258.46 563.89 258.86L563.89 258.86 564 259 564 259C564.5 258 564.48 255.21 564.13 252.67 563.64 249.17 563.24 248.13 561 246.25 559.573 244.956 557.668 244.322 555.75 244.5 553.148 242.481 550.013 241.264 546.73 241 541.73 240.82 536.27 243.43 533.95 246.49 530.44 251.09 530.83 254.09 530.83 255.16 530.83 256.23 529.6 258.09 530.46 258.09 531.02 258.09 531.57 258.09 532.13 258.09L532.13 258.09C535.3 258 541.77 257.65 545 255.75Z"/><path d="M562.42 260.17C562.37 260.1 561.27 258.57 559.93 256.58 558.829 254.775 557.369 253.216 555.64 252 555.303 251.755 554.937 251.553 554.55 251.4 552.77 252.75 548.19 256.19 546.01 257.46 542.55 259.46 536.24 259.99 532.01 260.08 532.12 268.916 539.371 275.99 548.207 275.88 556.099 275.783 562.741 269.944 563.85 262.13Z"/></g></svg>