<svg width="96" height="96" xmlns="http://www.w3.org/2000/svg" xmlns:xlink="http://www.w3.org/1999/xlink" xml:space="preserve" overflow="hidden"><defs><clipPath id="clip0"><rect x="318" y="230" width="96" height="96"/></clipPath></defs><g clip-path="url(#clip0)" transform="translate(-318 -230)"><path d="M398 296C397.948 293.495 396.773 291.145 394.8 289.6 390.4 286 384.8 283.6 379.2 282 374.922 280.69 370.474 280.017 366 280 361.531 280.077 357.092 280.75 352.8 282 347.207 283.632 341.932 286.202 337.2 289.6 335.227 291.145 334.052 293.495 334 296L334 312 398 312Z"/><path d="M383.11 271.6C382.19 268 385.71 259 385.74 252.66 385.74 247.59 384.3 245.32 381.58 243.78 380.01 242.89 376.39 243.71 376.39 243.71 376.39 243.71 374.52 240.17 368.26 238.22 363.116 236.82 357.626 237.521 353 240.17 349.13 242.67 347.26 245.42 347.17 254.88 347.09 263.55 348.28 271.25 347.73 274.88 347.476 276.889 346.712 278.8 345.51 280.43 345.51 280.43 351.51 281.2 354.86 279.43 356.546 278.299 358.144 277.042 359.64 275.67 354.508 273.276 350.767 268.65 349.5 263.13 349.37 262.65 348.5 259.51 349.89 257.75 350.65 256.75 352.39 256.47 355.29 255.96 358.761 255.503 362.149 254.55 365.35 253.13 368.948 251.321 372.285 249.033 375.27 246.33 375.664 245.943 376.297 245.947 376.684 246.341 376.832 246.49 376.928 246.682 376.96 246.89 377.198 248.535 377.77 250.114 378.64 251.53 379.048 252.052 379.55 252.493 380.12 252.83 380.785 253.228 381.358 253.764 381.8 254.4 382.522 255.809 382.931 257.358 383 258.94 382.935 266.237 378.599 272.819 371.92 275.76 373.18 276.87 374.83 278.24 376.65 279.56 379.65 281.73 386.9 278.73 386.9 278.73 386.9 278.73 384.56 277.33 383.11 271.6Z"/><path d="M381 259C380.947 257.791 380.654 256.605 380.14 255.51 379.847 255.096 379.464 254.754 379.02 254.51 378.255 254.049 377.578 253.457 377.02 252.76 376.215 251.602 375.635 250.302 375.31 248.93 372.518 251.274 369.465 253.287 366.21 254.93 362.832 256.433 359.255 257.443 355.59 257.93 353.9 258.23 351.79 258.6 351.43 258.98 350.83 259.76 351.14 261.75 351.43 262.59 353.14 269.8 359.26 275 366 275 374 275 381 267.52 381 259Z"/></g></svg>